<?xml version="1.0" encoding="UTF-8"?>
<svg xmlns="http://www.w3.org/2000/svg" xmlns:xlink="http://www.w3.org/1999/xlink" width="18px" height="18px" viewBox="0 0 18 18" version="1.1">
<g id="surface1">
<path style=" stroke:none;fill-rule:nonzero;fill:rgb(0%,0%,0%);fill-opacity:1;" d="M 1.015625 11.488281 C 0.714844 11.746094 0.507812 12.105469 0.449219 12.519531 L 0.203125 12.519531 C 0.09375 12.519531 0 12.425781 0 12.3125 L 0 11.691406 C 0 11.578125 0.09375 11.488281 0.203125 11.488281 Z M 3.359375 12.519531 C 3.375 12.597656 3.382812 12.675781 3.382812 12.761719 C 3.382812 13.460938 2.8125 14.03125 2.109375 14.03125 C 1.410156 14.03125 0.839844 13.460938 0.839844 12.761719 C 0.839844 12.675781 0.847656 12.597656 0.863281 12.519531 C 0.976562 11.929688 1.492188 11.488281 2.109375 11.488281 C 2.730469 11.488281 3.246094 11.929688 3.359375 12.519531 Z M 2.746094 12.761719 C 2.746094 12.675781 2.730469 12.589844 2.699219 12.519531 C 2.605469 12.289062 2.375 12.125 2.109375 12.125 C 1.84375 12.125 1.617188 12.289062 1.523438 12.519531 C 1.492188 12.589844 1.476562 12.675781 1.476562 12.761719 C 1.476562 13.109375 1.757812 13.398438 2.109375 13.398438 C 2.460938 13.398438 2.746094 13.109375 2.746094 12.761719 Z M 0.503906 10.671875 L 0.503906 4.582031 C 0.503906 4.242188 0.777344 3.96875 1.117188 3.96875 L 10.882812 3.96875 C 11.222656 3.96875 11.496094 4.242188 11.496094 4.582031 L 11.496094 10.671875 C 11.496094 10.785156 11.40625 10.878906 11.292969 10.878906 L 0.707031 10.878906 C 0.59375 10.878906 0.503906 10.785156 0.503906 10.671875 Z M 10.015625 9.984375 C 10.015625 10.082031 10.09375 10.160156 10.191406 10.160156 L 10.195312 10.160156 C 10.292969 10.160156 10.371094 10.082031 10.371094 9.984375 L 10.371094 4.929688 C 10.371094 4.832031 10.292969 4.753906 10.195312 4.753906 L 10.191406 4.753906 C 10.09375 4.753906 10.015625 4.832031 10.015625 4.929688 Z M 8.363281 9.984375 C 8.363281 10.082031 8.441406 10.160156 8.539062 10.160156 L 8.542969 10.160156 C 8.640625 10.160156 8.71875 10.082031 8.71875 9.984375 L 8.71875 4.929688 C 8.71875 4.832031 8.640625 4.753906 8.542969 4.753906 L 8.539062 4.753906 C 8.441406 4.753906 8.363281 4.832031 8.363281 4.929688 Z M 6.710938 9.984375 C 6.710938 10.082031 6.789062 10.160156 6.886719 10.160156 L 6.890625 10.160156 C 6.988281 10.160156 7.066406 10.082031 7.066406 9.984375 L 7.066406 4.929688 C 7.066406 4.832031 6.988281 4.753906 6.890625 4.753906 L 6.886719 4.753906 C 6.789062 4.753906 6.710938 4.832031 6.710938 4.929688 Z M 5.058594 9.984375 C 5.058594 10.082031 5.136719 10.160156 5.234375 10.160156 L 5.238281 10.160156 C 5.335938 10.160156 5.414062 10.082031 5.414062 9.984375 L 5.414062 4.929688 C 5.414062 4.832031 5.335938 4.753906 5.238281 4.753906 L 5.234375 4.753906 C 5.136719 4.753906 5.058594 4.832031 5.058594 4.929688 Z M 3.40625 9.984375 C 3.40625 10.082031 3.484375 10.160156 3.582031 10.160156 L 3.585938 10.160156 C 3.683594 10.160156 3.761719 10.082031 3.761719 9.984375 L 3.761719 4.929688 C 3.761719 4.832031 3.683594 4.753906 3.585938 4.753906 L 3.582031 4.753906 C 3.484375 4.753906 3.40625 4.832031 3.40625 4.929688 Z M 1.753906 9.984375 C 1.753906 10.082031 1.832031 10.160156 1.929688 10.160156 L 1.9375 10.160156 C 2.03125 10.160156 2.113281 10.082031 2.113281 9.984375 L 2.113281 4.929688 C 2.113281 4.832031 2.03125 4.753906 1.9375 4.753906 L 1.929688 4.753906 C 1.832031 4.753906 1.753906 4.832031 1.753906 4.929688 Z M 6.496094 12.519531 C 6.511719 12.597656 6.519531 12.675781 6.519531 12.761719 C 6.519531 13.460938 5.949219 14.03125 5.246094 14.03125 C 4.546875 14.03125 3.976562 13.460938 3.976562 12.761719 C 3.976562 12.675781 3.984375 12.597656 4 12.519531 C 4.113281 11.929688 4.628906 11.488281 5.246094 11.488281 C 5.867188 11.488281 6.382812 11.929688 6.496094 12.519531 Z M 5.882812 12.761719 C 5.882812 12.675781 5.867188 12.589844 5.835938 12.519531 C 5.742188 12.289062 5.511719 12.125 5.246094 12.125 C 4.980469 12.125 4.753906 12.289062 4.660156 12.519531 C 4.628906 12.589844 4.613281 12.675781 4.613281 12.761719 C 4.613281 13.109375 4.894531 13.398438 5.246094 13.398438 C 5.597656 13.398438 5.882812 13.109375 5.882812 12.761719 Z M 4.152344 11.488281 L 3.207031 11.488281 C 3.414062 11.667969 3.582031 11.898438 3.679688 12.160156 C 3.777344 11.898438 3.945312 11.667969 4.152344 11.488281 Z M 18 11.691406 L 18 12.3125 C 18 12.425781 17.90625 12.519531 17.796875 12.519531 L 16.140625 12.519531 C 16.023438 11.707031 15.324219 11.078125 14.480469 11.078125 C 13.636719 11.078125 12.9375 11.707031 12.820312 12.519531 L 6.910156 12.519531 C 6.851562 12.105469 6.644531 11.746094 6.34375 11.488281 L 12.082031 11.488281 L 12.082031 5.644531 C 12.082031 5.417969 12.261719 5.234375 12.492188 5.234375 L 14.417969 5.234375 C 14.964844 5.234375 15.46875 5.503906 15.773438 5.953125 L 17.019531 7.796875 C 17.199219 8.066406 17.300781 8.386719 17.300781 8.710938 L 17.300781 11.488281 L 17.796875 11.488281 C 17.90625 11.488281 18 11.578125 18 11.691406 Z M 15.929688 7.84375 L 14.933594 6.429688 C 14.894531 6.378906 14.832031 6.34375 14.765625 6.34375 L 13.214844 6.34375 C 13.101562 6.34375 13.007812 6.4375 13.007812 6.546875 L 13.007812 7.960938 C 13.007812 8.074219 13.101562 8.164062 13.214844 8.164062 L 15.761719 8.164062 C 15.925781 8.164062 16.023438 7.980469 15.929688 7.84375 Z M 15.753906 12.761719 C 15.753906 13.460938 15.183594 14.03125 14.480469 14.03125 C 13.777344 14.03125 13.210938 13.460938 13.210938 12.761719 C 13.210938 12.058594 13.777344 11.488281 14.480469 11.488281 C 15.183594 11.488281 15.753906 12.058594 15.753906 12.761719 Z M 15.117188 12.761719 C 15.117188 12.410156 14.832031 12.125 14.480469 12.125 C 14.128906 12.125 13.84375 12.410156 13.84375 12.761719 C 13.84375 13.109375 14.128906 13.398438 14.480469 13.398438 C 14.832031 13.398438 15.117188 13.109375 15.117188 12.761719 Z M 15.117188 12.761719 "/>
</g>
</svg>
